Coordinates
version=1
nRows=16
nColumns=40
inDegrees=yes

Units are S.I. units (second, meters, Newtons, ...)
Angles are in degrees.

endheader
time	pelvis_tilt	pelvis_list	pelvis_rotation	pelvis_tx	pelvis_ty	pelvis_tz	hip_flexion_r	hip_adduction_r	hip_rotation_r	knee_angle_r	knee_angle_r_beta	ankle_angle_r	subtalar_angle_r	mtp_angle_r	hip_flexion_l	hip_adduction_l	hip_rotation_l	knee_angle_l	knee_angle_l_beta	ankle_angle_l	subtalar_angle_l	mtp_angle_l	lumbar_extension	lumbar_bending	lumbar_rotation	arm_flex_r	arm_add_r	arm_rot_r	elbow_flex_r	pro_sup_r	wrist_flex_r	wrist_dev_r	arm_flex_l	arm_add_l	arm_rot_l	elbow_flex_l	pro_sup_l	wrist_flex_l	wrist_dev_l
     26.24750000	     -2.43691277	     -6.34615526	      2.41446250	      1.10511260	      0.93453050	      0.51771214	      6.08148382	      6.29560542	    -17.83008465	     12.38360887	     12.38360887	     10.43112945	      2.84913125	     -3.08258061	     34.39839307	    -14.49502345	      0.32967065	     48.79759454	     48.79759454	      9.14305974	    -18.75181143	     16.76386607	     -9.83389447	      6.09009061	      3.28509982	     26.93123607	    -15.41262406	    -12.55491494	     53.30242652	     46.07431894	      0.00000000	      0.00000000	      8.59127359	     -6.64930316	     -0.89578832	     26.23442734	     46.62072495	      0.00000000	      0.00000000
     26.25871429	     -2.63539768	     -6.38007411	      2.59587987	      1.10366702	      0.93384766	      0.51762922	      5.42529723	      6.43846892	    -18.01811544	     11.73973704	     11.73973704	     10.72091448	      3.34402380	     -3.38216619	     34.85420419	    -14.16505801	      0.14509995	     45.15440927	     45.15440927	      8.14677411	    -18.47872838	     15.05294689	     -9.73950793	      6.11859643	      3.83696201	     28.09167377	    -16.51942739	    -11.42635285	     56.89910410	     45.87959199	      0.00000000	      0.00000000	      7.80700964	     -6.26779444	     -0.77322827	     23.24202166	     46.56791741	      0.00000000	      0.00000000
     26.26992857	     -2.86830329	     -6.35079704	      2.74536910	      1.10229573	      0.93303472	      0.51742857	      4.79087926	      6.53662521	    -17.97560394	     11.07712573	     11.07712573	     11.07018653	      3.54708114	     -3.45258994	     35.26915839	    -13.67102717	      0.12723822	     41.53713380	     41.53713380	      7.83450269	    -17.91810811	     15.29102120	     -9.57285656	      6.05324848	      3.89075319	     30.20993040	    -16.71876024	    -11.53281364	     58.45454330	     45.83670758	      0.00000000	      0.00000000	      6.04656676	     -6.24841139	     -0.75381219	     22.34171091	     46.52653747	      0.00000000	      0.00000000
     26.28114286	     -3.02264465	     -6.41881472	      2.92840647	      1.10113639	      0.93215116	      0.51714847	      3.96374724	      6.75691846	    -18.08179925	     10.23493349	     10.23493349	     11.37582892	      4.01838284	     -3.57786188	     35.53251740	    -13.28191548	      0.16354844	     37.90833612	     37.90833612	      7.43523136	    -16.92594405	     15.11776048	     -9.48760092	      6.14765132	      3.70883519	     32.27651297	    -16.71300397	    -11.46473076	     60.46217061	     45.77054170	      0.00000000	      0.00000000	      4.17018070	     -6.31320910	     -0.70644073	     21.39413904	     46.47596627	      0.00000000	      0.00000000
     26.29235714	     -3.16022791	     -6.52758789	      3.10000494	      1.10015618	      0.93107515	      0.51677915	      3.07820664	      7.02166740	    -18.27531620	      9.33646938	      9.33646938	     11.67935988	      4.61130636	     -3.78233039	     35.73437728	    -12.97783906	      0.15388195	     34.38870618	     34.38870618	      7.00987539	    -15.43426309	     14.56947026	     -9.35093251	      6.26411242	      3.63015570	     34.20470309	    -16.83507869	    -11.27485706	     62.64739726	     45.69364154	      0.00000000	      0.00000000	      2.31687508	     -6.32390917	     -0.63648322	     20.68000104	     46.41613597	      0.00000000	      0.00000000
     26.30357143	     -3.33128015	     -6.72762396	      3.23700944	      1.09926463	      0.92968990	      0.51631186	      2.22109895	      7.37133025	    -18.46627316	      8.40656299	      8.40656299	     11.75794394	      5.34601181	     -4.53650401	     35.81605855	    -12.78236084	      0.12789449	     30.73876822	     30.73876822	      5.45919304	    -13.91180215	     10.88133812	     -9.33584893	      6.51992807	      3.99325724	     35.42911235	    -17.70059070	    -10.60036787	     66.17764754	     45.54306689	      0.00000000	      0.00000000	      0.42202083	     -6.38148490	      0.17548758	     20.80617496	     46.14573140	      0.00000000	      0.00000000
     26.31478571	     -3.57410005	     -6.83117299	      3.34945992	      1.09841244	      0.92824570	      0.51573072	      1.56966365	      7.58029607	    -18.45040189	      7.76844312	      7.76844312	     12.12256646	      5.70157921	     -4.65893544	     36.05670837	    -12.48082920	      0.10210081	     27.60615145	     27.60615145	      5.34617549	    -11.89716797	     11.19186922	     -9.07908374	      6.65026716	      4.19843317	     37.29460172	    -17.95699747	    -10.70847735	     67.44309499	     45.51239523	      0.00000000	      0.00000000	     -1.27115074	     -6.38075147	      0.24154308	     20.24805102	     46.09262147	      0.00000000	      0.00000000
     26.32600000	     -3.62584195	     -6.95865345	      3.46765625	      1.09793729	      0.92696618	      0.51513507	      0.52024713	      7.87454684	    -18.55992294	      6.80148151	      6.80148151	     12.39312257	      6.38521975	     -4.76664278	     36.06807571	    -12.31343724	     -0.21324349	     24.80030536	     24.80030536	      5.38742550	     -9.54502020	     11.27521385	     -9.06650335	      6.76929026	      4.04625663	     39.09786326	    -17.88480945	    -10.59682896	     69.39895363	     45.45019504	      0.00000000	      0.00000000	     -3.22835122	     -6.45448529	      0.36866995	     19.90410661	     46.01155440	      0.00000000	      0.00000000
     26.33721429	     -3.73573892	     -7.19976228	      3.59693316	      1.09756743	      0.92537556	      0.51440304	     -0.40870125	      8.25491003	    -18.77252380	      5.94215815	      5.94215815	     12.64779145	      7.17916278	     -4.96251039	     36.28802966	    -12.26264991	     -0.57814308	     22.56986895	     22.56986895	      5.41479337	     -7.28313774	     11.15004796	     -8.98246999	      7.07693045	      4.09368961	     40.59283083	    -18.18612227	    -10.25338630	     71.85720351	     45.36445313	      0.00000000	      0.00000000	     -5.35088004	     -6.54150700	      0.75990585	     20.48830556	     45.84325723	      0.00000000	      0.00000000
     26.34842857	     -3.91958364	     -7.31116288	      3.67086018	      1.09713283	      0.92379301	      0.51348853	     -1.03181201	      8.41384536	    -18.73273673	      5.54314020	      5.54314020	     13.05435301	      7.42495577	     -5.08851429	     36.40645215	    -12.00226213	     -0.82553215	     20.48223720	     20.48223720	      5.31767645	     -5.91337353	     11.48089964	     -8.77118700	      7.21775395	      4.32776338	     42.19816049	    -18.45736098	    -10.30137969	     73.07972636	     45.33358964	      0.00000000	      0.00000000	     -6.96818601	     -6.53456550	      0.87960007	     20.19742980	     45.77568394	      0.00000000	      0.00000000
     26.35964286	     -3.98744143	     -7.39885385	      3.74412982	      1.09698989	      0.92231793	      0.51248907	     -1.86781473	      8.56487437	    -18.76076491	      5.01102094	      5.01102094	     13.44034781	      7.90811379	     -5.13238297	     36.45578968	    -11.79578176	     -1.34997737	     19.00236724	     19.00236724	      5.38088612	     -4.64880509	     11.66773881	     -8.73578891	      7.29479433	      4.25791870	     43.64519050	    -18.46101485	    -10.15209455	     74.90852943	     45.27614059	      0.00000000	      0.00000000	     -8.88829479	     -6.56259169	      1.11027239	     20.19006449	     45.66751628	      0.00000000	      0.00000000
     26.37085714	     -4.09294431	     -7.47787217	      3.80240808	      1.09700110	      0.92077337	      0.51133710	     -2.56240611	      8.65085556	    -18.81848355	      4.71104403	      4.71104403	     13.89669555	      8.30983035	     -5.10968008	     36.53560346	    -11.57066338	     -1.93168015	     18.00925891	     18.00925891	      5.50347878	     -3.95656593	     11.78735161	     -8.58264217	      7.41863349	      4.27498938	     44.91975049	    -18.54174411	     -9.98935141	     76.67947814	     45.22101356	      0.00000000	      0.00000000	    -10.73119457	     -6.58050999	      1.40769898	     20.38981710	     45.54343778	      0.00000000	      0.00000000
     26.38207143	     -4.22443241	     -7.54869980	      3.83298553	      1.09703043	      0.91919800	      0.51006007	     -3.11595301	      8.67504731	    -18.82445702	      4.63577756	      4.63577756	     14.43717549	      8.58619100	     -5.04870176	     36.61392229	    -11.33276111	     -2.47375197	     17.44030263	     17.44030263	      5.53583829	     -3.87204885	     11.86385076	     -8.43279671	      7.52095618	      4.35607284	     46.11928085	    -18.62353049	     -9.89881962	     78.19414741	     45.17700618	      0.00000000	      0.00000000	    -12.42832263	     -6.57144222	      1.69877841	     20.47676246	     45.42935530	      0.00000000	      0.00000000
     26.39328571	     -4.44072981	     -7.58109772	      3.81296552	      1.09723670	      0.91753193	      0.50868053	     -3.55760075	      8.63256828	    -18.71272616	      4.62326991	      4.62326991	     14.90722368	      8.68238729	     -5.09791108	     36.76931600	    -11.08068518	     -3.05716642	     17.36343274	     17.36343274	      5.58742004	     -4.26344743	     11.86268071	     -8.09065185	      7.53648714	      4.64884271	     47.16319139	    -18.97767009	    -10.03890397	     78.85400228	     45.16588110	      0.00000000	      0.00000000	    -13.83963483	     -6.50814449	      1.75289268	     20.13821931	     45.38540488	      0.00000000	      0.00000000
     26.40450000	     -4.57451010	     -7.55141999	      3.78470620	      1.09761286	      0.91603243	      0.50709667	     -3.94983913	      8.43283638	    -18.93831651	      4.97422329	      4.97422329	     15.93086216	      9.25030420	     -3.95820187	     36.64892041	    -10.72556774	     -3.39499930	     17.37646787	     17.37646787	      5.19597749	     -5.47263692	     11.24951021	     -7.98885828	      7.52606278	      4.68087343	     47.78883328	    -19.09932297	     -9.77067301	     81.44421700	     45.09462064	      0.00000000	      0.00000000	    -15.92398543	     -6.70104328	      3.08876657	     21.65995628	     45.01745771	      0.00000000	      0.00000000
     26.41571429	     -4.72263726	     -7.48969062	      3.70216517	      1.09817323	      0.91449922	      0.50550709	     -4.37129743	      8.22511749	    -18.78143852	      5.20751769	      5.20751769	     16.48127990	      9.21647353	     -3.96698868	     36.59469877	    -10.45879089	     -3.98548433	     17.90300765	     17.90300765	      5.07795207	     -6.43603732	     11.15018094	     -7.74247005	      7.45356011	      4.72937096	     48.69131853	    -19.00936231	     -9.84979198	     82.19235241	     45.07935411	      0.00000000	      0.00000000	    -17.21828819	     -6.54753769	      3.31544003	     21.19888983	     44.94860586	      0.00000000	      0.00000000
